# xmcd CD database file
#
# Track frame offsets:
#	150
#	20300
#	66787
#	109070
#	142162
#	169660
#	177780
#
# Disc length: 2716 seconds
#
# Revision: 0
# Processed by: cddbd v1.5.2PL0 Copyright (c) Steve Scherf et al.
# Submitted via: CDex 1.51
#
DISCID=590a9a07
DTITLE=Stauss, Chaine, Lindenmaier - Open
DYEAR=1994
DGENRE=Jazz
TTITLE0=Sad Song
TTITLE1=For Jean
TTITLE2=Surinam 65
TTITLE3=Another Memory
TTITLE4=Open
TTITLE5=Heartbeat
TTITLE6=K1 the Ballade
EXTD=YEAR: 1994
EXTT0=
EXTT1=
EXTT2=
EXTT3=
EXTT4=
EXTT5=
EXTT6=
PLAYORDER=
